<svg width="278" height="60" viewBox="0 0 278 60" fill="none" xmlns="http://www.w3.org/2000/svg">
<rect y="4.15414" width="5.53886" height="55.3886" rx="2.76943" fill="#191919"/>
<rect x="22.1555" y="4.15414" width="5.53886" height="55.3886" rx="2.76943" fill="#191919"/>
<rect x="44.3109" y="4.15414" width="5.53886" height="55.3886" rx="2.76943" fill="#191919"/>
<rect x="11.0777" width="5.53886" height="55.3886" rx="2.76943" fill="#38A1FF"/>
<rect x="33.2332" width="5.53886" height="55.3886" rx="2.76943" fill="#38A1FF"/>
<path d="M75.632 32.512C76.4427 32.64 77.1787 32.9707 77.84 33.504C78.5227 34.0373 79.056 34.6987 79.44 35.488C79.8453 36.2773 80.048 37.12 80.048 38.016C80.048 39.1467 79.76 40.1707 79.184 41.088C78.608 41.984 77.7653 42.6987 76.656 43.232C75.568 43.744 74.2773 44 72.784 44H64.464V21.696H72.464C73.9787 21.696 75.2693 21.952 76.336 22.464C77.4027 22.9547 78.2027 23.6267 78.736 24.48C79.2693 25.3333 79.536 26.2933 79.536 27.36C79.536 28.6827 79.1733 29.7813 78.448 30.656C77.744 31.5093 76.8053 32.128 75.632 32.512ZM67.376 31.328H72.272C73.6373 31.328 74.6933 31.008 75.44 30.368C76.1867 29.728 76.56 28.8427 76.56 27.712C76.56 26.5813 76.1867 25.696 75.44 25.056C74.6933 24.416 73.616 24.096 72.208 24.096H67.376V31.328ZM72.528 41.6C73.9787 41.6 75.1093 41.2587 75.92 40.576C76.7307 39.8933 77.136 38.944 77.136 37.728C77.136 36.4907 76.7093 35.52 75.856 34.816C75.0027 34.0907 73.8613 33.728 72.432 33.728H67.376V41.6H72.528ZM85.593 23.616C85.0383 23.616 84.569 23.424 84.185 23.04C83.801 22.656 83.609 22.1867 83.609 21.632C83.609 21.0773 83.801 20.608 84.185 20.224C84.569 19.84 85.0383 19.648 85.593 19.648C86.1263 19.648 86.5743 19.84 86.937 20.224C87.321 20.608 87.513 21.0773 87.513 21.632C87.513 22.1867 87.321 22.656 86.937 23.04C86.5743 23.424 86.1263 23.616 85.593 23.616ZM87.001 26.464V44H84.089V26.464H87.001ZM99.196 26.176C100.711 26.176 102.033 26.5067 103.164 27.168C104.316 27.8293 105.169 28.6613 105.724 29.664V26.464H108.668V44.384C108.668 45.984 108.327 47.4027 107.644 48.64C106.961 49.8987 105.98 50.88 104.7 51.584C103.441 52.288 101.969 52.64 100.284 52.64C97.98 52.64 96.06 52.096 94.524 51.008C92.988 49.92 92.0813 48.4373 91.804 46.56H94.684C95.004 47.6267 95.6653 48.48 96.668 49.12C97.6707 49.7813 98.876 50.112 100.284 50.112C101.884 50.112 103.185 49.6107 104.188 48.608C105.212 47.6053 105.724 46.1973 105.724 44.384V40.704C105.148 41.728 104.295 42.5813 103.164 43.264C102.033 43.9467 100.711 44.288 99.196 44.288C97.6387 44.288 96.22 43.904 94.94 43.136C93.6813 42.368 92.6893 41.2907 91.964 39.904C91.2387 38.5173 90.876 36.9387 90.876 35.168C90.876 33.376 91.2387 31.808 91.964 30.464C92.6893 29.0987 93.6813 28.0427 94.94 27.296C96.22 26.5493 97.6387 26.176 99.196 26.176ZM105.724 35.2C105.724 33.8773 105.457 32.7253 104.924 31.744C104.391 30.7627 103.665 30.016 102.748 29.504C101.852 28.9707 100.86 28.704 99.772 28.704C98.684 28.704 97.692 28.96 96.796 29.472C95.9 29.984 95.1853 30.7307 94.652 31.712C94.1187 32.6933 93.852 33.8453 93.852 35.168C93.852 36.512 94.1187 37.6853 94.652 38.688C95.1853 39.6693 95.9 40.4267 96.796 40.96C97.692 41.472 98.684 41.728 99.772 41.728C100.86 41.728 101.852 41.472 102.748 40.96C103.665 40.4267 104.391 39.6693 104.924 38.688C105.457 37.6853 105.724 36.5227 105.724 35.2ZM112.501 32.832C112.501 30.656 112.992 28.704 113.973 26.976C114.954 25.2267 116.288 23.8613 117.973 22.88C119.68 21.8987 121.568 21.408 123.637 21.408C126.069 21.408 128.192 21.9947 130.005 23.168C131.818 24.3413 133.141 26.0053 133.973 28.16H130.485C129.866 26.816 128.97 25.7813 127.797 25.056C126.645 24.3307 125.258 23.968 123.637 23.968C122.08 23.968 120.682 24.3307 119.445 25.056C118.208 25.7813 117.237 26.816 116.533 28.16C115.829 29.4827 115.477 31.04 115.477 32.832C115.477 34.6027 115.829 36.16 116.533 37.504C117.237 38.8267 118.208 39.8507 119.445 40.576C120.682 41.3013 122.08 41.664 123.637 41.664C125.258 41.664 126.645 41.312 127.797 40.608C128.97 39.8827 129.866 38.848 130.485 37.504H133.973C133.141 39.6373 131.818 41.2907 130.005 42.464C128.192 43.616 126.069 44.192 123.637 44.192C121.568 44.192 119.68 43.712 117.973 42.752C116.288 41.7707 114.954 40.416 113.973 38.688C112.992 36.96 112.501 35.008 112.501 32.832ZM147.012 26.144C148.334 26.144 149.529 26.432 150.596 27.008C151.662 27.5627 152.494 28.4053 153.092 29.536C153.71 30.6667 154.02 32.0427 154.02 33.664V44H151.14V34.08C151.14 32.3307 150.702 30.9973 149.828 30.08C148.953 29.1413 147.758 28.672 146.244 28.672C144.708 28.672 143.481 29.152 142.564 30.112C141.668 31.072 141.22 32.4693 141.22 34.304V44H138.308V20.32H141.22V28.96C141.796 28.064 142.585 27.3707 143.588 26.88C144.612 26.3893 145.753 26.144 147.012 26.144ZM157.689 35.168C157.689 33.376 158.051 31.808 158.777 30.464C159.502 29.0987 160.494 28.0427 161.753 27.296C163.033 26.5493 164.451 26.176 166.009 26.176C167.545 26.176 168.878 26.5067 170.009 27.168C171.139 27.8293 171.982 28.6613 172.537 29.664V26.464H175.481V44H172.537V40.736C171.961 41.76 171.097 42.6133 169.945 43.296C168.814 43.9573 167.491 44.288 165.977 44.288C164.419 44.288 163.011 43.904 161.753 43.136C160.494 42.368 159.502 41.2907 158.777 39.904C158.051 38.5173 157.689 36.9387 157.689 35.168ZM172.537 35.2C172.537 33.8773 172.27 32.7253 171.737 31.744C171.203 30.7627 170.478 30.016 169.561 29.504C168.665 28.9707 167.673 28.704 166.585 28.704C165.497 28.704 164.505 28.96 163.609 29.472C162.713 29.984 161.998 30.7307 161.465 31.712C160.931 32.6933 160.665 33.8453 160.665 35.168C160.665 36.512 160.931 37.6853 161.465 38.688C161.998 39.6693 162.713 40.4267 163.609 40.96C164.505 41.472 165.497 41.728 166.585 41.728C167.673 41.728 168.665 41.472 169.561 40.96C170.478 40.4267 171.203 39.6693 171.737 38.688C172.27 37.6853 172.537 36.5227 172.537 35.2ZM183.954 28.864V39.2C183.954 40.0533 184.135 40.6613 184.498 41.024C184.86 41.3653 185.49 41.536 186.385 41.536H188.53V44H185.906C184.284 44 183.068 43.6267 182.258 42.88C181.447 42.1333 181.042 40.9067 181.042 39.2V28.864H178.77V26.464H181.042V22.048H183.954V26.464H188.53V28.864H183.954ZM203.226 32.512C204.036 32.64 204.772 32.9707 205.434 33.504C206.116 34.0373 206.65 34.6987 207.034 35.488C207.439 36.2773 207.642 37.12 207.642 38.016C207.642 39.1467 207.354 40.1707 206.778 41.088C206.202 41.984 205.359 42.6987 204.25 43.232C203.162 43.744 201.871 44 200.378 44H192.058V21.696H200.058C201.572 21.696 202.863 21.952 203.93 22.464C204.996 22.9547 205.796 23.6267 206.33 24.48C206.863 25.3333 207.13 26.2933 207.13 27.36C207.13 28.6827 206.767 29.7813 206.042 30.656C205.338 31.5093 204.399 32.128 203.226 32.512ZM194.97 31.328H199.866C201.231 31.328 202.287 31.008 203.034 30.368C203.78 29.728 204.154 28.8427 204.154 27.712C204.154 26.5813 203.78 25.696 203.034 25.056C202.287 24.416 201.21 24.096 199.802 24.096H194.97V31.328ZM200.122 41.6C201.572 41.6 202.703 41.2587 203.514 40.576C204.324 39.8933 204.73 38.944 204.73 37.728C204.73 36.4907 204.303 35.52 203.45 34.816C202.596 34.0907 201.455 33.728 200.026 33.728H194.97V41.6H200.122ZM214.595 29.312C215.107 28.3093 215.832 27.5307 216.771 26.976C217.731 26.4213 218.893 26.144 220.259 26.144V29.152H219.491C216.227 29.152 214.595 30.9227 214.595 34.464V44H211.683V26.464H214.595V29.312ZM222.532 35.168C222.532 33.376 222.895 31.808 223.62 30.464C224.346 29.0987 225.338 28.0427 226.596 27.296C227.876 26.5493 229.295 26.176 230.852 26.176C232.388 26.176 233.722 26.5067 234.852 27.168C235.983 27.8293 236.826 28.6613 237.38 29.664V26.464H240.324V44H237.38V40.736C236.804 41.76 235.94 42.6133 234.788 43.296C233.658 43.9573 232.335 44.288 230.82 44.288C229.263 44.288 227.855 43.904 226.596 43.136C225.338 42.368 224.346 41.2907 223.62 39.904C222.895 38.5173 222.532 36.9387 222.532 35.168ZM237.38 35.2C237.38 33.8773 237.114 32.7253 236.58 31.744C236.047 30.7627 235.322 30.016 234.404 29.504C233.508 28.9707 232.516 28.704 231.428 28.704C230.34 28.704 229.348 28.96 228.452 29.472C227.556 29.984 226.842 30.7307 226.308 31.712C225.775 32.6933 225.508 33.8453 225.508 35.168C225.508 36.512 225.775 37.6853 226.308 38.688C226.842 39.6693 227.556 40.4267 228.452 40.96C229.348 41.472 230.34 41.728 231.428 41.728C232.516 41.728 233.508 41.472 234.404 40.96C235.322 40.4267 236.047 39.6693 236.58 38.688C237.114 37.6853 237.38 36.5227 237.38 35.2ZM251.453 44.288C250.109 44.288 248.904 44.064 247.837 43.616C246.771 43.1467 245.928 42.5067 245.309 41.696C244.691 40.864 244.349 39.9147 244.285 38.848H247.293C247.379 39.7227 247.784 40.4373 248.509 40.992C249.256 41.5467 250.227 41.824 251.421 41.824C252.531 41.824 253.405 41.5787 254.045 41.088C254.685 40.5973 255.005 39.9787 255.005 39.232C255.005 38.464 254.664 37.8987 253.981 37.536C253.299 37.152 252.243 36.7787 250.813 36.416C249.512 36.0747 248.445 35.7333 247.613 35.392C246.803 35.0293 246.099 34.5067 245.501 33.824C244.925 33.12 244.637 32.2027 244.637 31.072C244.637 30.176 244.904 29.3547 245.437 28.608C245.971 27.8613 246.728 27.2747 247.709 26.848C248.691 26.4 249.811 26.176 251.069 26.176C253.011 26.176 254.579 26.6667 255.773 27.648C256.968 28.6293 257.608 29.9733 257.693 31.68H254.781C254.717 30.7627 254.344 30.0267 253.661 29.472C253 28.9173 252.104 28.64 250.973 28.64C249.928 28.64 249.096 28.864 248.477 29.312C247.859 29.76 247.549 30.3467 247.549 31.072C247.549 31.648 247.731 32.128 248.093 32.512C248.477 32.8747 248.947 33.1733 249.501 33.408C250.077 33.6213 250.867 33.8667 251.869 34.144C253.128 34.4853 254.152 34.8267 254.941 35.168C255.731 35.488 256.403 35.9787 256.957 36.64C257.533 37.3013 257.832 38.1653 257.853 39.232C257.853 40.192 257.587 41.056 257.053 41.824C256.52 42.592 255.763 43.2 254.781 43.648C253.821 44.0747 252.712 44.288 251.453 44.288ZM263.468 23.616C262.913 23.616 262.444 23.424 262.06 23.04C261.676 22.656 261.484 22.1867 261.484 21.632C261.484 21.0773 261.676 20.608 262.06 20.224C262.444 19.84 262.913 19.648 263.468 19.648C264.001 19.648 264.449 19.84 264.812 20.224C265.196 20.608 265.388 21.0773 265.388 21.632C265.388 22.1867 265.196 22.656 264.812 23.04C264.449 23.424 264.001 23.616 263.468 23.616ZM264.876 26.464V44H261.964V26.464H264.876ZM272.751 20.32V44H269.839V20.32H272.751Z" fill="black"/>
</svg>
