<svg width="501" height="501" viewBox="0 0 501 501" fill="none" xmlns="http://www.w3.org/2000/svg">
<path d="M308.414 198.121C310.368 196.627 312.663 195.641 315.092 195.253C317.521 194.864 320.009 195.084 322.332 195.894C318.261 180.864 314.12 163.83 303.82 152.467C302.429 151.004 294.008 142.447 283.569 140.844C277.692 140.025 271.712 140.356 265.962 141.818C258.933 143.489 257.332 145.02 255.383 147.943C253.188 151.544 251.235 155.287 249.536 159.148C251.26 159.148 263.62 152.748 277.445 156.154C293.8 160.122 297.139 169.516 299.436 173.622C302.872 181.619 305.869 189.797 308.414 198.121Z" fill="#38A1FF"/>
<path d="M174.795 199.025C173.542 199.083 172.357 199.095 171.105 199.095C170.478 197.424 169.852 195.754 169.156 194.153C168.6 192.83 166.511 192.482 166.165 194.153C165.819 195.824 165.468 197.424 165.05 199.025C163.297 198.955 161.501 198.885 159.762 198.747C159.392 198.763 159.037 198.897 158.749 199.129C158.461 199.362 158.255 199.681 158.161 200.039C158.068 200.397 158.091 200.776 158.229 201.119C158.366 201.463 158.611 201.754 158.925 201.949C160.388 202.713 161.849 203.479 163.242 204.313C162.45 205.874 161.976 207.577 161.849 209.323C161.501 210.646 163.449 211.618 164.564 210.714C165.884 209.739 167.137 208.71 168.459 207.723C169.644 208.557 170.757 209.461 171.939 210.365C173.124 211.34 175.488 210.435 174.795 208.697C174.236 207.164 173.61 205.633 173.041 204.173C173.875 203.547 174.795 202.85 175.616 202.224C176.811 201.182 176.603 198.94 174.795 199.025Z" fill="#38A1FF"/>
<path d="M153.497 200.696C152.101 200.719 150.707 200.811 149.321 200.974C148.905 199.859 148.569 198.747 148.209 197.632C148.106 197.278 147.891 196.967 147.596 196.745C147.301 196.524 146.942 196.404 146.573 196.404C146.204 196.404 145.845 196.524 145.55 196.745C145.255 196.967 145.04 197.278 144.937 197.632C144.659 198.955 144.311 200.277 143.963 201.53C142.209 201.752 140.443 201.868 138.675 201.878C137.004 201.878 136.1 204.453 137.768 205.217C139.091 205.846 140.483 206.47 141.806 207.099C141.105 208.538 140.681 210.095 140.553 211.69C140.559 211.938 140.638 212.178 140.781 212.38C140.923 212.583 141.122 212.739 141.353 212.828C141.583 212.918 141.836 212.937 142.077 212.883C142.319 212.83 142.539 212.706 142.71 212.527C144.103 211.482 145.493 210.578 146.886 209.463C148.139 210.019 149.391 210.646 150.644 211.217C150.984 211.398 151.374 211.465 151.756 211.408C152.137 211.35 152.49 211.172 152.763 210.899C153.036 210.626 153.214 210.273 153.27 209.891C153.327 209.51 153.26 209.12 153.078 208.779C152.519 207.797 151.985 206.799 151.478 205.788C152.452 205.022 153.359 204.326 154.401 203.632C154.691 203.442 154.912 203.163 155.03 202.837C155.148 202.51 155.156 202.155 155.054 201.823C154.952 201.492 154.745 201.202 154.464 200.999C154.183 200.796 153.844 200.689 153.497 200.696Z" fill="#38A1FF"/>
<path d="M130.671 201.252C129.211 201.347 127.818 201.46 126.355 201.53C125.659 200.137 124.962 198.677 124.269 197.284C123.642 195.961 121.831 196.52 121.415 197.632C120.914 199.025 120.441 200.485 119.952 201.891C118.074 202.029 116.195 202.099 114.316 202.169C112.923 202.239 112.019 204.396 113.55 205.022C114.872 205.648 116.265 206.204 117.655 206.831C117.001 208.214 116.488 209.66 116.125 211.147C116.025 211.443 116.018 211.762 116.104 212.062C116.191 212.362 116.368 212.628 116.61 212.825C116.852 213.022 117.149 213.14 117.46 213.163C117.772 213.186 118.083 213.114 118.352 212.955C118.422 212.885 122.25 210.313 123.572 209.406C125.103 210.102 126.563 210.799 128.026 211.565C128.318 211.731 128.656 211.797 128.988 211.752C129.321 211.707 129.63 211.554 129.867 211.317C130.104 211.079 130.256 210.771 130.301 210.438C130.345 210.105 130.279 209.767 130.113 209.476C129.627 208.364 129.071 207.249 128.582 206.067C129.557 205.44 130.531 204.814 131.506 204.118C131.792 203.939 132.012 203.671 132.133 203.355C132.253 203.04 132.267 202.694 132.173 202.369C132.079 202.045 131.881 201.76 131.61 201.558C131.339 201.357 131.009 201.249 130.671 201.252Z" fill="#38A1FF"/>
<path d="M406.89 74.4515C405.705 74.3914 404.522 74.3112 403.41 74.3112C402.852 72.5727 402.366 70.8318 401.809 69.0933C401.716 68.7689 401.519 68.4838 401.249 68.2808C400.979 68.0779 400.65 67.9682 400.313 67.9682C399.975 67.9682 399.646 68.0779 399.376 68.2808C399.107 68.4838 398.91 68.7689 398.816 69.0933C398.327 70.694 397.841 72.2246 397.423 73.8252C395.755 73.6173 394.167 73.4771 392.483 73.199C392.088 73.1087 391.673 73.1605 391.312 73.3453C390.951 73.5302 390.667 73.8364 390.509 74.21C390.351 74.5837 390.33 75.001 390.449 75.3887C390.568 75.7764 390.82 76.1098 391.161 76.3302C392.551 77.1669 393.874 78.0837 395.196 78.9755C394.278 80.5587 393.687 82.3101 393.458 84.1258C393.458 84.4039 394.432 86.7686 395.822 85.5862C397.19 84.5318 398.633 83.5782 400.139 82.733C401.251 83.7075 402.366 84.6819 403.478 85.739C403.747 86 404.094 86.1656 404.467 86.2105C404.839 86.2554 405.216 86.1771 405.539 85.9877C405.863 85.7982 406.115 85.5079 406.258 85.1613C406.401 84.8146 406.427 84.4307 406.331 84.0682C405.915 82.5376 405.427 81.0622 405.011 79.5442C405.915 78.9179 406.89 78.2917 407.794 77.6654C408.103 77.4603 408.34 77.1623 408.469 76.8143C408.598 76.4663 408.614 76.0862 408.513 75.7289C408.413 75.3715 408.201 75.0553 407.909 74.8257C407.618 74.5962 407.261 74.4651 406.89 74.4515Z" fill="#38A1FF"/>
<path d="M385.593 74.5216C384.202 74.4239 382.88 74.4515 381.487 74.4515C381.139 73.2691 380.861 72.0842 380.583 70.9019C380.48 70.5477 380.265 70.2364 379.97 70.0149C379.675 69.7935 379.316 69.6737 378.947 69.6737C378.578 69.6737 378.219 69.7935 377.924 70.0149C377.629 70.2364 377.414 70.5477 377.311 70.9019C376.963 72.1544 376.56 73.4069 376.129 74.5917C374.319 74.6711 372.507 74.6477 370.7 74.5216C370.313 74.534 369.94 74.6704 369.636 74.9107C369.332 75.151 369.114 75.4826 369.012 75.8565C368.911 76.2305 368.933 76.6271 369.074 76.9879C369.215 77.3487 369.468 77.6547 369.796 77.8608C371.119 78.6273 372.509 79.3938 373.832 80.1579C373.257 81.5102 372.724 82.8794 372.231 84.2636C371.813 85.5161 373.483 86.2826 374.388 85.5161C374.598 85.3081 377.394 83.3592 378.356 82.733C379.608 83.4294 380.931 84.1959 382.183 84.8898C382.524 85.0655 382.912 85.1285 383.29 85.0696C383.669 85.0107 384.02 84.8329 384.291 84.562C384.562 84.2911 384.74 83.941 384.799 83.5623C384.859 83.1836 384.796 82.7958 384.621 82.4549C384.132 81.4805 383.714 80.4359 383.296 79.4615C384.34 78.7676 385.385 78.1413 386.429 77.5126C387.89 76.7486 387.126 74.6293 385.593 74.5216Z" fill="#38A1FF"/>
<path d="M363.476 75.3557H359.218C358.662 73.9654 358.103 72.6428 357.547 71.25C357.128 70.1353 355.32 69.4965 354.694 70.9018L352.815 75.2856C350.936 75.2856 348.987 75.2179 347.108 75.1478C346.775 75.1544 346.453 75.269 346.191 75.4744C345.929 75.6797 345.74 75.9647 345.654 76.2865C345.567 76.6083 345.588 76.9494 345.712 77.2586C345.836 77.5678 346.057 77.8283 346.342 78.001C347.594 78.6974 348.917 79.3938 350.17 80.02C349.495 81.332 348.891 82.6791 348.361 84.0556C348.215 84.3549 348.167 84.6927 348.225 85.0208C348.283 85.3488 348.443 85.6501 348.682 85.8817C348.921 86.1133 349.228 86.2632 349.558 86.31C349.887 86.3568 350.223 86.2981 350.518 86.1422C350.588 86.0746 354.486 83.8476 355.879 83.0811L360.262 85.5861C360.529 85.7379 360.834 85.8082 361.14 85.7883C361.445 85.7683 361.739 85.659 361.983 85.4739C362.227 85.2887 362.412 85.036 362.514 84.7469C362.616 84.4578 362.631 84.1451 362.557 83.8476C362.141 82.5951 361.653 81.3426 361.167 80.0901C362.209 79.534 363.253 78.9078 364.298 78.3517C364.584 78.1612 364.804 77.8852 364.924 77.5629C365.045 77.2407 365.061 76.8886 364.97 76.5567C364.879 76.2248 364.686 75.9301 364.417 75.7145C364.149 75.4989 363.82 75.3733 363.476 75.3557Z" fill="#38A1FF"/>
<path d="M321.916 78.0011C323.168 78.6824 324.491 79.3938 325.743 80.0201C325.07 81.3327 324.465 82.6798 323.932 84.0556C323.786 84.3552 323.738 84.6936 323.795 85.0221C323.853 85.3506 324.013 85.6524 324.253 85.8842C324.493 86.116 324.8 86.2658 325.13 86.3122C325.461 86.3586 325.797 86.2991 326.091 86.1423C327.865 85.0999 329.651 84.0794 331.45 83.0812L335.833 85.5862C336.1 85.7388 336.405 85.8097 336.712 85.7902C337.018 85.7706 337.312 85.6614 337.557 85.4761C337.801 85.2909 337.986 85.0377 338.088 84.7482C338.19 84.4587 338.205 84.1455 338.131 83.8477C337.712 82.5952 337.226 81.3427 336.738 80.0902C337.782 79.5341 338.827 78.9079 339.872 78.3518C340.17 78.1661 340.4 77.8888 340.528 77.5614C340.655 77.2339 340.673 76.874 340.579 76.5354C340.485 76.1969 340.283 75.898 340.005 75.6835C339.727 75.469 339.386 75.3505 339.035 75.3458H334.789C334.233 73.9555 333.677 72.6328 333.121 71.2401C332.702 70.1278 330.891 69.5016 330.265 70.8919L328.389 75.2756C326.51 75.2756 324.561 75.208 322.68 75.1378C322.349 75.1523 322.032 75.2717 321.775 75.4787C321.517 75.6858 321.332 75.9696 321.247 76.289C321.162 76.6084 321.181 76.9467 321.301 77.2546C321.421 77.5625 321.637 77.824 321.916 78.0011Z" fill="#38A1FF"/>
<path d="M332.216 207.307C330.723 204.973 328.753 202.981 326.437 201.46C317.149 194.832 305.378 202.735 303.96 213.291C303.404 217.745 302.985 226.167 306.813 232.58C308.65 235.817 311.672 238.215 315.243 239.266C318.814 240.318 322.653 239.941 325.951 238.216C335.568 233.306 337.504 216.204 332.216 207.307ZM328.945 229.1C328.733 229.29 328.472 229.416 328.192 229.463C327.912 229.511 327.625 229.478 327.362 229.369C327.1 229.259 326.874 229.078 326.711 228.846C326.548 228.613 326.454 228.339 326.44 228.055C326.58 224.368 327.973 220.956 327.765 217.199C327.765 215.19 327.366 213.202 326.589 211.35C325.812 209.498 324.674 207.819 323.241 206.412C322.056 205.368 323.662 203.341 324.912 204.255C326.721 205.613 328.234 207.325 329.358 209.288C330.483 211.25 331.195 213.421 331.452 215.668C332.076 219.904 332.006 225.748 328.945 229.09V229.1Z" fill="#38A1FF"/>
<path d="M207.915 100.759C205.27 91.9915 150.158 96.0471 143.537 97.4875C141.879 97.6596 140.355 98.4803 139.3 99.7708C138.244 101.061 137.741 102.717 137.901 104.376C137.79 110.571 136.092 135.904 137.064 142.307C138.597 152.605 147.853 151.979 156.135 152.257C160.867 152.397 180.979 152.049 180.979 152.049C196.761 163.369 194.441 162.109 194.757 161.793C195.035 159.704 193.434 151.841 196.843 151.352C198.236 151.145 205.057 151.145 206.38 148.918C209.521 143.697 208.547 102.705 207.915 100.759ZM156.906 127.755C155.976 127.846 155.048 127.569 154.32 126.984C153.592 126.398 153.122 125.551 153.011 124.624C153.013 123.993 153.185 123.373 153.51 122.832C153.834 122.29 154.299 121.846 154.855 121.547C155.411 121.248 156.037 121.104 156.668 121.131C157.299 121.158 157.911 121.355 158.439 121.701C159.021 122.073 159.471 122.62 159.725 123.262C159.979 123.905 160.025 124.611 159.855 125.281C159.685 125.95 159.309 126.55 158.78 126.994C158.251 127.438 157.595 127.705 156.906 127.755ZM173.053 127.755C169.852 127.755 169.226 125.947 169.156 124.624C169.157 123.993 169.33 123.373 169.654 122.832C169.979 122.29 170.444 121.846 171 121.547C171.556 121.248 172.182 121.104 172.813 121.131C173.444 121.158 174.056 121.355 174.584 121.701C175.164 122.074 175.613 122.62 175.866 123.262C176.119 123.904 176.164 124.609 175.995 125.278C175.826 125.947 175.451 126.546 174.923 126.991C174.395 127.435 173.741 127.703 173.053 127.755ZM188.852 127.755C185.441 127.755 185.022 125.947 184.955 124.624C184.958 123.994 185.131 123.375 185.456 122.835C185.78 122.294 186.245 121.851 186.8 121.553C187.356 121.254 187.981 121.111 188.611 121.137C189.241 121.164 189.853 121.361 190.38 121.706C190.954 122.082 191.396 122.629 191.645 123.268C191.894 123.908 191.938 124.609 191.77 125.275C191.602 125.94 191.23 126.537 190.708 126.981C190.185 127.426 189.536 127.696 188.852 127.755Z" fill="#38A1FF"/>
<path d="M487.34 211.422C487.426 210.599 487.349 209.767 487.111 208.973C486.874 208.18 486.482 207.442 485.958 206.801C485.433 206.161 484.787 205.631 484.056 205.241C483.326 204.852 482.525 204.611 481.701 204.533C475.161 203.141 419.973 199.105 417.323 207.873C416.766 209.822 415.792 250.813 418.853 256.031C420.176 258.258 426.994 258.258 428.387 258.469C432.145 259.005 429.948 268.589 430.547 269.185C430.547 269.047 445.091 260.696 445.091 260.696C445.091 260.696 464.367 259.511 469.101 259.373C477.383 259.095 486.636 259.651 488.169 249.421C489.149 243.008 487.45 217.685 487.34 211.422ZM440.293 231.675C440.153 232.995 439.737 235.084 436.396 234.806C435.715 234.758 435.066 234.496 434.542 234.059C434.018 233.621 433.645 233.03 433.475 232.369C433.333 231.742 433.37 231.087 433.58 230.479C433.79 229.871 434.165 229.334 434.664 228.927C435.162 228.521 435.764 228.261 436.402 228.178C437.04 228.095 437.688 228.191 438.274 228.456C438.898 228.722 439.425 229.171 439.786 229.745C440.147 230.318 440.324 230.988 440.293 231.665V231.675ZM456.022 231.675C455.882 232.995 455.604 234.806 452.125 234.806C451.436 234.782 450.775 234.53 450.245 234.088C449.716 233.647 449.349 233.042 449.201 232.369C449.064 231.742 449.103 231.09 449.315 230.485C449.527 229.879 449.903 229.344 450.401 228.94C450.899 228.536 451.5 228.278 452.136 228.196C452.772 228.114 453.419 228.21 454.003 228.474C454.623 228.739 455.149 229.186 455.509 229.755C455.87 230.325 456.049 230.991 456.022 231.665V231.675ZM472.237 231.745C472.099 233.065 471.333 234.806 468.272 234.877C467.582 234.824 466.927 234.554 466.4 234.105C465.873 233.657 465.502 233.053 465.339 232.381C465.177 231.709 465.232 231.002 465.496 230.363C465.76 229.723 466.219 229.184 466.809 228.822C467.335 228.471 467.947 228.27 468.579 228.24C469.211 228.21 469.839 228.352 470.397 228.651C470.954 228.95 471.42 229.395 471.744 229.938C472.068 230.482 472.239 231.103 472.237 231.735V231.745Z" fill="#38A1FF"/>
<path d="M251.903 239.042C250.791 238.965 250.373 240.433 250.999 241.129C256.287 246.906 267.91 240.991 267.782 233.682C267.772 233.384 267.666 233.097 267.48 232.863C267.295 232.63 267.039 232.462 266.751 232.384C266.463 232.306 266.157 232.323 265.88 232.432C265.602 232.541 265.366 232.735 265.207 232.988C264.084 235.41 262.236 237.423 259.919 238.749C257.191 240.155 254.759 239.228 251.903 239.042Z" fill="#191919"/>
<path d="M245.49 175.781C244.383 176.693 245.56 178.494 246.883 178.146C250.848 176.893 253.493 179.747 253.423 183.657C253.31 188.386 248.914 194.724 245.49 208.99C244.097 214.626 240.688 230.355 251.474 229.103C252.589 228.962 253.075 227.224 251.752 226.946C243.263 225.205 248.343 211.843 249.803 206.485C253.513 193.351 260.472 184.063 255.024 177.116C254.495 176.39 253.826 175.777 253.056 175.314C252.285 174.852 251.43 174.549 250.54 174.425C249.65 174.3 248.745 174.356 247.877 174.589C247.009 174.822 246.197 175.228 245.49 175.781Z" fill="#191919"/>
<path d="M272.016 201.182C275.426 201.54 280.298 198.677 279.879 194.779C279.868 194.466 279.757 194.165 279.563 193.918C279.37 193.672 279.103 193.494 278.801 193.409C278.5 193.324 278.179 193.337 277.885 193.446C277.591 193.555 277.34 193.754 277.166 194.015C275.982 195.754 275.077 197.702 272.642 197.773C271.484 197.73 270.381 197.27 269.537 196.476C268.693 195.682 268.165 194.61 268.051 193.456C268.037 193.161 267.91 192.882 267.696 192.678C267.482 192.474 267.198 192.36 266.902 192.36C266.607 192.36 266.322 192.474 266.108 192.678C265.895 192.882 265.767 193.161 265.754 193.456C265.619 195.299 266.192 197.124 267.356 198.559C268.519 199.994 270.186 200.932 272.016 201.182Z" fill="#191919"/>
<path d="M247.996 192.9C247.99 192.659 247.921 192.423 247.797 192.216C247.673 192.008 247.497 191.837 247.287 191.718C247.077 191.599 246.84 191.536 246.598 191.536C246.357 191.536 246.119 191.599 245.909 191.718C245.142 192.134 244.516 193.041 243.472 192.83C242.497 192.622 242.149 191.578 241.871 190.743C241.819 190.564 241.715 190.404 241.573 190.284C241.431 190.163 241.256 190.086 241.071 190.064C240.886 190.042 240.698 190.074 240.531 190.158C240.364 190.241 240.226 190.371 240.132 190.533C239.899 191.041 239.776 191.592 239.771 192.151C239.766 192.71 239.878 193.263 240.101 193.776C240.325 194.288 240.653 194.748 241.066 195.124C241.479 195.501 241.967 195.786 242.497 195.961C244.596 196.728 248.158 195.543 247.996 192.9Z" fill="#191919"/>
<path d="M268.885 179.398C275.626 177.758 280.576 182.044 283.985 187.194C284.164 187.484 284.441 187.699 284.766 187.802C285.091 187.904 285.442 187.886 285.755 187.75C286.067 187.615 286.321 187.372 286.469 187.065C286.616 186.758 286.649 186.408 286.56 186.079C285.308 178.008 275.01 174.807 268.259 177.242C267.988 177.337 267.764 177.533 267.632 177.788C267.501 178.044 267.473 178.34 267.553 178.616C267.633 178.892 267.815 179.127 268.063 179.272C268.311 179.418 268.605 179.463 268.885 179.398Z" fill="#191919"/>
<path d="M228.101 261.868C231.858 263.872 238.331 263.469 239.516 260.267C242.159 253.098 234.436 247.114 227.059 250.037C224.336 246.465 222.521 242.286 221.768 237.858C220.44 230.21 222.945 223.732 224.969 216.492C225.318 215.24 223.647 214.684 222.953 215.658C215.017 226.585 216.132 243.148 224.413 253.587C224.043 255.18 224.202 256.851 224.868 258.346C225.533 259.841 226.668 261.077 228.101 261.868Z" fill="#191919"/>
<path d="M476.136 452.556C470.755 452.386 465.372 452.27 459.989 452.208C461.241 433.14 462.912 414.069 463.26 394.931C463.257 394.662 463.192 394.398 463.071 394.158C462.949 393.918 462.774 393.709 462.558 393.548C462.343 393.387 462.094 393.277 461.829 393.228C461.565 393.178 461.292 393.19 461.033 393.263C454.682 395.285 448.071 396.382 441.407 396.519C434.686 396.515 427.994 395.626 421.505 393.877C421.255 393.809 420.993 393.798 420.739 393.846C420.485 393.894 420.245 393.999 420.037 394.153C419.83 394.307 419.66 394.506 419.54 394.736C419.421 394.965 419.355 395.219 419.348 395.477C419.388 414.508 421.182 433.494 424.706 452.196C419.268 452.251 362.254 452.105 295.874 451.912C324.02 450.392 357.344 438.994 378.008 419.833C377.157 429.685 375.339 439.429 372.579 448.924C372.161 450.455 374.598 451.639 375.292 450.039C377.48 444.481 379.023 438.689 379.889 432.779C381.205 427.481 381.698 422.012 381.349 416.564C389.587 408.172 395.834 398.037 399.628 386.906C403.423 375.776 404.667 363.935 403.271 352.259C400.397 323.519 388.742 302.311 362.975 287.537C367.219 286.365 371.036 283.997 373.972 280.716C375.524 278.981 376.648 276.906 377.252 274.658C377.857 272.41 377.925 270.052 377.452 267.772C376.337 263.386 372.579 261.009 368.684 259.21C364.41 257.186 360.811 253.972 358.316 249.954C349.268 236.803 353.025 219.473 352.955 211.192C352.677 183.136 352.191 142.432 323.449 127.4C306.886 118.7 281.831 120.022 271.463 137.212C275.688 136.741 279.961 136.929 284.128 137.77C292.734 139.189 300.541 143.66 306.119 150.366C311.732 156.948 316.01 164.559 318.717 172.775C321.014 179.038 326.162 198.246 326.162 198.246C329.3 200.069 331.95 202.624 333.887 205.693C339.887 216.102 337.612 235.21 326.72 240.839C323.491 242.558 319.771 243.122 316.177 242.439C312.582 241.756 309.329 239.865 306.956 237.081C305.493 245.852 306.258 254.851 309.183 263.248C311.27 269.233 313.496 275.636 318.369 279.463C314.711 281.552 296.528 296.971 289.975 300.691C282.319 305.004 268.051 311.407 265.338 298.531C265.06 297.141 262.971 297.767 263.181 299.087C266.66 317.875 289.985 304.656 299.09 298.672C302.57 296.374 315.515 285.31 318.995 283.013C330.616 275.287 347.319 283.221 358.106 289.067C370.716 295.48 381.366 305.172 388.937 317.123C396.262 330.421 400.07 345.369 400.002 360.55C400.21 390.337 383.298 415.322 358.038 430.074C344.68 437.586 330.17 442.834 315.097 445.605C299.509 448.736 282.875 449.918 267.502 445.394C265.96 438.073 265.984 430.507 267.572 423.195C277.733 425.398 288.285 425.001 298.252 422.043C308.219 419.084 317.278 413.659 324.591 406.269C331.905 398.879 337.235 389.764 340.09 379.767C342.945 369.77 343.232 359.214 340.924 349.077C340.368 346.294 336.054 347.477 336.678 350.26C338.809 359.84 338.46 369.806 335.665 379.215C332.869 388.623 327.72 397.163 320.704 404.026C313.688 410.89 305.036 415.85 295.568 418.437C286.101 421.024 276.129 421.153 266.598 418.811C266.082 418.677 265.534 418.747 265.067 419.005C264.601 419.264 264.252 419.693 264.093 420.202C263.55 422.435 263.108 424.692 262.77 426.965C258.938 424.456 254.624 422.774 250.105 422.025C238.802 419.603 231.696 424.237 221.919 430.445C217.029 433.059 212.372 436.086 207.998 439.493C207.094 440.327 208.069 442.138 209.251 441.649C223.559 435.698 233.351 421.377 249.962 425.227C254.238 426.467 258.423 428.001 262.487 429.818C262.008 434.77 262.261 439.765 263.239 444.643C264.005 448.541 264.839 448.749 268.599 449.723C273.259 450.896 278.019 451.626 282.815 451.905L260.002 451.837C260.39 451.399 260.686 450.888 260.871 450.333C261.057 449.778 261.128 449.192 261.082 448.608C261.109 446.798 260.574 445.023 259.551 443.528C257.88 441.857 221.067 443.806 205.546 443.18C199.91 431.697 194.411 420.134 188.843 408.593C201.754 404.111 213.303 396.396 222.387 386.184C222.522 396.782 225.178 413.959 231.087 422.233C232.202 423.764 234.844 422.93 234.218 420.911C232.41 414.856 229.348 409.287 227.956 403.025C223.913 383.467 226.407 363.123 235.055 345.122C235.212 344.845 235.252 344.517 235.167 344.21C235.082 343.903 234.879 343.643 234.601 343.486C234.324 343.329 233.996 343.289 233.69 343.374C233.383 343.459 233.123 343.662 232.966 343.939C226.697 355.047 223.099 367.461 222.457 380.199C213.097 391.515 201.1 400.358 187.52 405.948C182.302 395.092 177.082 384.155 171.794 373.308C183.159 361.332 197.345 336.51 210.974 322.088C230.183 301.627 245.912 296.337 251.129 294.806C266.024 290.631 269.226 295.084 269.504 293.206C270.326 288.072 270.629 282.869 270.408 277.675C270.436 273.834 270.016 270.003 269.155 266.259C277.159 264.521 283.632 257.91 282.379 248.792C282.169 247.191 279.664 247.68 279.594 249.14C279.399 252.152 278.258 255.025 276.334 257.349C274.409 259.674 271.8 261.331 268.877 262.084C265.641 262.666 262.313 262.472 259.167 261.516C256.021 260.561 253.147 258.872 250.781 256.588C242.152 248.932 237.349 236.613 235.123 225.548C232.89 214.402 233.377 202.883 236.54 191.965C239.703 181.047 245.449 171.052 253.294 162.825C253.487 162.632 253.596 162.369 253.596 162.095C253.596 161.821 253.487 161.559 253.294 161.365C253.1 161.171 252.837 161.063 252.564 161.063C252.29 161.063 252.027 161.171 251.833 161.365C244.356 168.548 238.557 177.295 234.851 186.979C231.146 196.663 229.625 207.047 230.398 217.387C231.651 235.761 240.919 263.529 262.274 266.382C263.544 266.532 264.824 266.578 266.102 266.52C266.235 274.072 268.046 273.749 266.588 289.488C266.518 289.488 266.518 289.418 266.45 289.418C256.357 287.191 245.015 291.575 236.175 296.237C214.845 307.432 201.49 326.144 188.079 345.372C182.302 353.654 176.177 361.655 170.123 369.728C167.548 364.37 151.821 334.157 149.454 333.406C146.999 332.614 34.224 334.481 21.5387 336.885C15.2762 338.068 20.8448 346.838 22.3754 350.247C35.945 381.357 74.1512 451.158 74.2289 451.229C60.8647 451.021 47.9264 450.88 34.4895 450.743C34.1853 450.743 33.8935 450.864 33.6783 451.079C33.4631 451.294 33.3423 451.586 33.3423 451.89C33.3423 452.194 33.4631 452.486 33.6783 452.701C33.8935 452.916 34.1853 453.037 34.4895 453.037C147.094 458.425 447.629 456.334 475.993 455.126C476.169 455.148 476.347 455.134 476.517 455.084C476.686 455.034 476.844 454.95 476.98 454.837C477.115 454.723 477.226 454.583 477.306 454.425C477.385 454.267 477.431 454.094 477.441 453.918C477.451 453.741 477.424 453.564 477.363 453.399C477.302 453.233 477.207 453.081 477.084 452.954C476.962 452.826 476.815 452.725 476.651 452.656C476.488 452.588 476.313 452.554 476.136 452.556ZM456.509 452.208C446.767 452.138 437.023 452.208 427.349 452.278C424.663 434.231 423.153 416.028 422.827 397.784C428.926 399.311 435.19 400.082 441.477 400.081C447.652 399.971 453.784 399.035 459.711 397.298C459.292 415.67 457.694 433.904 456.509 452.208Z" fill="#191919"/>
<path d="M103.597 388.526C102.622 387.552 99.2832 385.114 96.5678 387.552C92.4621 391.169 98.5868 400.425 103.331 400.147C110.836 399.733 105.408 389.921 103.597 388.526Z" fill="#38A1FF"/>
<path d="M428.882 392.982C428.21 385.82 428.323 377.952 426.514 370.991C426.421 370.675 426.218 370.403 425.943 370.223C425.667 370.044 425.336 369.968 425.01 370.01C424.683 370.052 424.382 370.208 424.161 370.452C423.94 370.696 423.812 371.01 423.802 371.339C423.661 378.508 425.54 386.234 426.514 393.33C426.722 394.653 429.012 394.375 428.882 392.982Z" fill="#191919"/>
<path d="M438.485 392.704C437.468 381.307 436.955 370.087 437.022 358.604C436.969 358.18 436.763 357.79 436.442 357.508C436.122 357.225 435.71 357.07 435.283 357.07C434.856 357.07 434.443 357.225 434.123 357.508C433.803 357.79 433.596 358.18 433.543 358.604C432.888 370.153 433.778 381.738 436.188 393.052C436.277 393.315 436.455 393.538 436.692 393.682C436.929 393.826 437.209 393.882 437.483 393.841C437.757 393.799 438.007 393.663 438.191 393.455C438.374 393.247 438.478 392.981 438.485 392.704Z" fill="#191919"/>
<path d="M450.943 391.662C452.21 384.693 452.821 377.464 453.518 370.435C454.638 363.016 455.242 355.528 455.326 348.025C455.318 347.635 455.169 347.261 454.909 346.971C454.648 346.68 454.292 346.493 453.905 346.442C453.518 346.392 453.126 346.481 452.8 346.695C452.473 346.908 452.234 347.232 452.125 347.607C450.859 354.645 450.046 361.757 449.69 368.899C448.994 376.346 448.089 383.861 448.089 391.309C448.089 392.844 450.65 393.26 450.943 391.662Z" fill="#191919"/>
<path d="M485.044 65.3358C484.766 60.1855 485.6 53.8529 480.868 50.5814C474.465 46.1951 465.069 45.7091 457.624 45.153C433.769 43.149 393.213 45.8519 384.979 47.5879C381.222 48.3544 379.691 51.9716 379.205 55.5212C378.891 59.0873 378.891 62.6741 379.205 66.2401C379.222 66.6717 379.405 67.0801 379.716 67.3795C380.028 67.679 380.443 67.8463 380.875 67.8463C381.307 67.8463 381.722 67.679 382.033 67.3795C382.344 67.0801 382.527 66.6717 382.544 66.2401C382.544 62.6905 381.362 51.6936 385.257 50.9972C407.293 48.193 429.527 47.262 451.72 48.2141C459.934 48.6325 469.255 48.9807 476.845 52.39C477.743 52.6586 478.57 53.1224 479.268 53.7482C479.965 54.3739 480.516 55.1462 480.88 56.0097C480.88 57.8784 484.523 113.427 481.993 121.009C480.602 125.393 473.644 127.552 469.398 127.623C460.958 127.898 436.119 126.465 424.308 126.16C421.384 126.09 405.447 143.695 405.447 143.695C405.447 143.695 405.239 134.091 405.099 129.288C405.09 129.013 405.019 128.743 404.892 128.498C404.764 128.253 404.584 128.039 404.364 127.873C404.144 127.706 403.89 127.591 403.62 127.535C403.349 127.479 403.07 127.484 402.802 127.55C396.748 128.454 389.44 128.592 384.43 124.486C381.437 122.052 381.577 117.668 381.507 114.118C381.299 106.323 382.9 97.8357 381.299 90.1078C381.089 88.9254 379.072 89.2035 379.213 90.3858C380.114 99.99 377.261 109.734 378.516 119.406C379.977 130.541 392.016 132.212 401.55 131.237C401.69 137.084 401.898 142.931 402.038 148.772C402.051 149.151 402.184 149.515 402.419 149.813C402.653 150.11 402.977 150.325 403.342 150.426C403.707 150.527 404.095 150.509 404.448 150.374C404.802 150.239 405.104 149.995 405.31 149.677C410.766 142.392 416.944 135.678 423.751 129.637C424.167 129.707 445.813 130.681 456.181 130.959C465.299 131.237 479.357 133.116 484.786 123.374C487.914 117.735 485.425 71.6935 485.044 65.3358Z" fill="#191919"/>
<path d="M405.638 120.453C405.657 120.735 405.782 121 405.989 121.193C406.195 121.386 406.467 121.493 406.75 121.493C407.033 121.493 407.305 121.386 407.511 121.193C407.718 121 407.843 120.735 407.862 120.453C408.892 101.102 415.976 93.9003 426.166 89.9699C427.349 89.5541 427.349 87.4649 425.818 87.6052C419.415 88.0912 414.127 92.8932 410.788 98.1262C406.472 104.865 405.673 112.59 405.638 120.453Z" fill="#191919"/>
<path d="M416.702 103.89C415.449 109.523 414.658 115.248 414.337 121.009C414.345 121.322 414.464 121.62 414.673 121.853C414.881 122.085 415.166 122.236 415.475 122.277C415.784 122.319 416.099 122.25 416.361 122.081C416.624 121.913 416.818 121.656 416.909 121.358C417.99 115.687 418.618 109.939 418.788 104.168C418.858 103.054 416.902 102.776 416.702 103.89Z" fill="#191919"/>
<path d="M462.145 102.705C466.356 95.0677 463.19 85.9219 457.832 79.7396C456.927 78.695 455.464 80.0176 456.023 81.1298C458.598 86.21 461.729 91.5682 460.545 97.485C459.573 102.357 453.237 109.524 448.368 104.026C448.198 103.862 447.979 103.759 447.746 103.73C447.512 103.702 447.275 103.75 447.071 103.868C446.867 103.986 446.707 104.167 446.614 104.384C446.522 104.6 446.503 104.841 446.559 105.07C446.823 105.924 447.274 106.709 447.879 107.367C447.411 110.09 446.642 117.763 447.601 120.393C447.671 120.634 447.818 120.846 448.019 120.996C448.22 121.147 448.464 121.228 448.715 121.228C448.966 121.228 449.21 121.147 449.411 120.996C449.611 120.846 449.758 120.634 449.828 120.393C450.159 116.552 450.275 112.695 450.176 108.84C454.214 110.153 460.146 106.335 462.145 102.705Z" fill="#191919"/>
<path d="M449.55 98.6698C453.545 96.2099 456.579 91.2926 454.908 86.4905C454.839 86.2727 454.695 86.0865 454.501 85.9655C454.307 85.8444 454.076 85.7963 453.85 85.8297C453.624 85.8632 453.418 85.976 453.267 86.1481C453.117 86.3201 453.032 86.5401 453.029 86.7686C453.092 88.3701 452.793 89.9653 452.155 91.4355C451.517 92.9056 450.555 94.213 449.342 95.2605C447.943 93.0363 446.081 91.1393 443.883 89.6983C441.686 88.2573 439.204 87.3059 436.607 86.9088C436.488 86.8759 436.364 86.8668 436.241 86.8818C436.119 86.8969 436.001 86.9359 435.894 86.9966C435.787 87.0573 435.692 87.1385 435.616 87.2357C435.541 87.3328 435.485 87.4439 435.452 87.5627C435.419 87.6814 435.41 87.8055 435.425 87.9278C435.44 88.0501 435.479 88.1682 435.54 88.2755C435.6 88.3827 435.681 88.4769 435.779 88.5528C435.876 88.6286 435.987 88.6846 436.106 88.7175C438.546 89.4274 440.816 90.6266 442.778 92.242C444.74 93.8573 446.353 95.8551 447.518 98.1137C447.611 98.2878 447.738 98.4411 447.892 98.5643C448.046 98.6875 448.224 98.7778 448.414 98.8299C448.604 98.882 448.803 98.8946 448.999 98.8671C449.194 98.8396 449.381 98.7724 449.55 98.6698Z" fill="#191919"/>
<path d="M448.228 84.2636C444.578 80.1278 440.262 89.4139 445.863 89.4139C455.605 89.4139 458.318 71.9465 456.509 67.7005C455.257 64.7096 450.317 63.7351 449.41 67.6304C449.297 68.1801 449.346 68.7508 449.552 69.273C449.757 69.7951 450.111 70.2462 450.568 70.571C451.026 70.8958 451.568 71.0804 452.129 71.1023C452.69 71.1241 453.245 70.9823 453.726 70.694C453.726 71.18 453.238 79.5317 448.228 84.2636Z" fill="#191919"/>
<path d="M414.265 82.5927C414.888 83.3692 415.694 83.9796 416.61 84.3693C417.527 84.7591 418.525 84.9163 419.517 84.8267C420.509 84.7372 421.463 84.4039 422.295 83.8563C423.127 83.3087 423.81 82.564 424.285 81.6884C424.945 82.8396 425.898 83.7961 427.047 84.4612C428.195 85.1263 429.499 85.4766 430.826 85.4766C432.154 85.4766 433.458 85.1263 434.606 84.4612C435.755 83.7961 436.708 82.8396 437.368 81.6884C437.516 82.3249 437.875 82.8925 438.387 83.2989C438.899 83.7053 439.533 83.9265 440.186 83.9265C440.84 83.9265 441.474 83.7053 441.986 83.2989C442.497 82.8925 442.857 82.3249 443.005 81.6884C443.513 81.435 443.944 81.0494 444.253 80.5721C444.561 80.0948 444.736 79.5433 444.758 78.9755C445.319 78.7031 445.758 78.2313 445.99 77.6522C446.222 77.0731 446.229 76.4284 446.011 75.8442C446.081 75.4759 446.081 75.0977 446.011 74.7295C446.395 74.3075 446.678 73.8039 446.839 73.2566C447.001 72.7093 447.036 72.1325 446.942 71.5697C446.848 71.0069 446.628 70.4726 446.298 70.0072C445.968 69.5418 445.536 69.1574 445.036 68.8828C444.771 68.7382 444.491 68.6216 444.202 68.5346C444.34 67.7706 443.713 66.5181 441.905 66.6559C441.706 66.3107 441.446 66.0044 441.138 65.7516C441.134 65.3029 441.025 64.8615 440.82 64.4626C440.615 64.0637 440.319 63.7185 439.956 63.4545C440.063 62.8156 439.98 62.1594 439.719 61.5669C439.457 60.9744 439.027 60.4715 438.483 60.1203C438.135 59.6182 437.684 59.1967 437.159 58.8844C436.635 58.5721 436.049 58.3763 435.442 58.3102C434.835 58.2442 434.221 58.3094 433.641 58.5016C433.062 58.6937 432.53 59.0083 432.083 59.4239C431.541 58.7565 430.818 58.2599 430 57.9937C429.183 57.7276 428.306 57.7032 427.475 57.9237C426.644 58.1441 425.895 58.5999 425.317 59.2362C424.739 59.8726 424.357 60.6624 424.217 61.5106C423.713 61.2024 423.14 61.0232 422.55 60.9889C421.96 60.9546 421.371 61.0662 420.834 61.3138C420.297 61.5615 419.83 61.9375 419.473 62.4088C419.117 62.88 418.881 63.4319 418.789 64.0156C418.551 63.8077 415.114 64.3187 417.676 67.2846C417.121 67.6163 416.647 68.0673 416.288 68.6051C415.93 69.1428 415.695 69.7537 415.602 70.3935C415.508 71.0332 415.559 71.6857 415.749 72.3035C415.939 72.9214 416.265 73.4891 416.702 73.9655C415.855 74.2337 415.087 74.7083 414.469 75.3466C413.85 75.9848 413.4 76.7667 413.158 77.6221C412.916 78.4775 412.891 79.3794 413.084 80.247C413.277 81.1146 413.683 81.9206 414.265 82.5927ZM429.994 83.2891C423.393 81.9865 424.009 72.7104 424.149 72.3648C425.633 72.0878 427.031 71.4643 428.228 70.5449C429.425 69.6255 430.388 68.4363 431.038 67.0742C431.67 68.4285 432.687 69.5665 433.962 70.3462C435.237 71.1258 436.714 71.5125 438.207 71.4579C438.084 72.7298 438.037 74.008 438.067 75.2856C438.067 75.4259 435.432 84.3612 429.994 83.2891Z" fill="#191919"/>
<path d="M84.7366 270.009C94.0628 276.066 103.389 282.189 112.437 288.591C112.709 288.752 113.018 288.838 113.334 288.841C113.649 288.844 113.96 288.764 114.235 288.609C114.51 288.454 114.739 288.229 114.9 287.958C115.06 287.686 115.147 287.377 115.15 287.061C114.594 281.703 113.967 276.412 113.411 271.054C123.502 273.699 136.307 274.325 139.857 262.079C141.595 255.954 141.179 248.855 141.179 242.592C141.247 234.656 141.317 226.585 140.621 218.649C140.621 218.17 140.43 217.71 140.091 217.37C139.752 217.031 139.292 216.841 138.812 216.841C138.332 216.841 137.872 217.031 137.533 217.37C137.194 217.71 137.003 218.17 137.003 218.649C136.725 230.621 137.755 242.522 137.003 254.491C136.655 260.338 135.473 266.044 129.278 268.268C123.572 270.287 117.307 268.406 111.743 266.738C111.465 266.666 111.175 266.657 110.893 266.714C110.612 266.771 110.347 266.891 110.119 267.065C109.891 267.24 109.705 267.464 109.576 267.72C109.448 267.977 109.379 268.259 109.376 268.546L111.047 283.371C103.391 278.151 87.5247 266.738 86.2722 266.876C76.39 267.99 37.4247 270.495 28.0209 269.799C24.3336 269.521 19.8797 268.754 17.6527 265.415C15.005 261.45 15.6312 201.402 15.9794 191.44C16.1172 187.264 16.1172 182.114 19.529 179.05C22.8682 176.059 27.8105 176.129 31.9864 176.059C49.8721 175.781 125.869 172.65 130.253 174.04C135.819 175.781 136.307 182.74 136.445 187.542C136.515 189.351 139.508 189.977 139.857 188.028C140.969 180.721 139.301 172.369 131.017 170.631C125.31 169.394 125.07 170.729 36.092 172.44C28.7148 172.58 19.0405 172.162 14.8647 179.677C13.319 183.131 12.5813 186.892 12.7079 190.673C12.4298 196.798 12.4298 253.865 12.9859 259.363C13.7374 267.68 17.4223 272.201 28.0886 272.795C34.2133 273.213 72.0714 271.472 84.7366 270.009Z" fill="#191919"/>
<path d="M96.9865 240.433C96.2452 246.413 96.7666 252.482 98.517 258.248C98.6129 258.571 98.8202 258.849 99.102 259.034C99.3839 259.218 99.722 259.297 100.056 259.255C100.39 259.214 100.699 259.055 100.927 258.807C101.156 258.56 101.289 258.239 101.303 257.902C101.218 254.981 100.892 252.071 100.328 249.203C99.9799 246.279 99.8271 243.356 99.4915 240.435C99.4918 240.103 99.3602 239.784 99.1255 239.549C98.8908 239.314 98.5724 239.182 98.2402 239.181C97.908 239.181 97.5893 239.313 97.3542 239.547C97.1191 239.782 96.9868 240.1 96.9865 240.433Z" fill="#191919"/>
<path d="M105.824 234.867C110.626 242.738 109.08 248.424 109.654 253.168C109.792 254.283 111.533 255.187 112.159 253.865C116.382 244.228 108.652 227.312 95.9417 222.687C95.9417 222.339 93.3691 219.416 92.5324 218.023C92.4241 217.844 92.277 217.692 92.1019 217.578C91.9268 217.464 91.7282 217.391 91.521 217.365C91.3137 217.338 91.1031 217.358 90.9048 217.424C90.7065 217.49 90.5256 217.6 90.3756 217.745C89.0529 219.068 83.9027 221.503 84.321 222.477C85.1078 224.703 86.1095 226.848 87.312 228.88C87.4491 229.087 87.6352 229.256 87.8537 229.373C88.0723 229.491 88.3164 229.552 88.5645 229.552C88.8125 229.552 89.0567 229.491 89.2752 229.373C89.4938 229.256 89.6799 229.087 89.817 228.88C91.0466 227.244 92.5259 225.812 94.2007 224.636C98.9047 226.969 102.913 230.497 105.824 234.867ZM88.845 225.678L87.3821 223.173C88.6996 222.558 89.9384 221.787 91.072 220.876C91.4878 221.435 91.9061 221.991 92.3946 222.547C91.1139 223.475 89.9253 224.524 88.845 225.678Z" fill="#191919"/>
<path d="M78.1967 229.438C79.5995 227.777 80.7017 225.956 81.9542 224.148C82.1456 223.824 82.2018 223.438 82.1109 223.074C82.0199 222.709 81.7891 222.395 81.4683 222.199C80.1456 221.295 78.7529 220.528 77.4302 219.694C76.5848 218.998 75.5821 218.52 74.5094 218.301C72.062 218.301 72.0896 220.676 70.9598 221.087C70.8436 221.125 70.7364 221.186 70.6448 221.267C70.5531 221.348 70.4789 221.447 70.4267 221.558C70.3744 221.668 70.3452 221.789 70.3408 221.911C70.3364 222.033 70.357 222.155 70.4012 222.269C68.2444 222.199 61.7715 226.863 59.6147 231.455C57.5452 228.933 56.4769 225.737 56.6137 222.477C56.9594 222.757 57.3075 223.103 57.7259 223.384C63.1542 226.723 67.4703 222.409 66.9944 219.834C66.298 216.355 61.566 214.266 60.4538 218.93C58.3685 217.006 56.7698 214.615 55.7895 211.953C54.8092 209.29 54.4752 206.433 54.8151 203.617C54.8151 203.687 57.1823 204.802 58.2269 201.738C58.6081 201.019 58.7251 200.189 58.5575 199.392C58.3899 198.596 57.9483 197.883 57.3097 197.378C56.671 196.874 55.8756 196.609 55.0619 196.63C54.2482 196.651 53.4677 196.957 52.8562 197.495C50.6292 198.955 50.7695 209.326 51.1878 211.831C50.9774 211.901 40.3312 228.95 48.4023 239.947C49.7585 241.871 51.6202 243.384 53.7818 244.317C55.9435 245.25 58.3209 245.568 60.6517 245.235C60.4992 250.442 60.732 255.653 61.3481 260.826C61.556 262.702 64.3391 262.842 64.3391 260.826C64.4192 255.283 64.0472 249.743 63.2269 244.26C64.5295 243.56 65.6859 242.617 66.6337 241.482C67.4703 240.368 66.0074 238.837 65.1031 239.952C63.9406 241.17 62.5441 242.14 60.9974 242.805C55.9874 244.265 50.4188 239.882 48.8882 234.453C46.9394 227.494 50.1407 221.3 52.0195 215.165C52.6983 217.056 53.6096 218.856 54.7324 220.523C53.8044 223.523 53.8535 226.741 54.8727 229.711C55.5691 231.59 56.9594 235.07 59.3967 235.14C61.7614 235.21 62.9463 232.913 63.7805 231.172C65.3812 227.762 71.576 224.213 71.6462 223.935C73.2544 225.122 77.3676 230.418 78.1967 229.438ZM73.5349 222.129C73.813 221.713 74.0911 221.087 74.2864 221.016C74.7373 220.849 75.3185 221.472 78.7403 223.87L77.6982 225.748C76.4414 224.399 75.0459 223.186 73.5349 222.129Z" fill="#191919"/>
<path d="M81.8165 227.975C81.5384 227.071 79.8676 226.585 79.7974 227.697C79.79 228.107 79.87 228.514 80.0322 228.891C80.1943 229.268 80.4348 229.606 80.7376 229.882C81.0405 230.159 81.3988 230.368 81.7887 230.495C82.1786 230.622 82.5911 230.665 82.9988 230.621C83.4518 230.599 83.893 230.47 84.2858 230.243C84.6786 230.017 85.0114 229.699 85.2566 229.318C85.5017 228.936 85.6521 228.502 85.6951 228.05C85.7381 227.599 85.6725 227.144 85.5038 226.723C85.3949 226.536 85.2314 226.388 85.0354 226.298C84.8394 226.207 84.6204 226.179 84.4079 226.217C84.1954 226.255 83.9996 226.357 83.8471 226.51C83.6946 226.663 83.5926 226.858 83.5549 227.071C83.4172 228.394 82.7208 229.646 81.8165 227.975Z" fill="#191919"/>
<path d="M82.79 259.085C83.7494 260.14 84.3907 258.945 85.0169 257.903C86.3903 256.315 87.5592 254.561 88.4964 252.682C89.1828 250.503 87.9403 247.94 85.3651 232.292C85.2655 231.979 85.0541 231.713 84.7713 231.547C84.4885 231.38 84.1541 231.323 83.8321 231.387C82.4117 231.67 80.4979 231.347 80.3526 232.292C79.1001 237.803 78.266 243.426 77.2915 248.992C76.7154 252.069 75.8537 251.47 82.79 259.085ZM80.4929 245.308C81.1442 241.345 81.4674 237.374 81.9533 233.336C82.5776 233.406 83.2078 233.406 83.8321 233.336C85.2249 233.547 86.059 248.161 86.2694 249.761C86.6853 252.767 83.6242 256.525 83.4839 256.72C82.4705 255.412 81.5409 254.041 80.7008 252.615C79.1703 250.525 80.0921 247.745 80.4929 245.305V245.308Z" fill="#191919"/>
<path d="M88.0781 191.996C87.1011 191.466 85.9806 191.262 84.8794 191.412C83.7781 191.562 82.7532 192.058 81.9534 192.83C80.8422 192.137 79.5536 191.781 78.244 191.806C76.9344 191.831 75.6602 192.235 74.5762 192.971C69.1479 197.076 72.4194 206.472 72.7676 207.236C73.8798 213.291 77.1513 219.556 84.1804 218.649C90.7936 217.815 92.8802 209.326 92.4619 202.645C92.74 194.919 90.235 193.181 88.0781 191.996ZM82.7901 207.236C81.5398 207.187 80.2955 207.433 79.1585 207.956C78.0215 208.478 77.0239 209.262 76.247 210.242C75.6353 208.55 75.1922 206.802 74.9244 205.022C76.1468 201.881 80.5005 200.921 82.0937 198.133C84.4584 199.942 89.4709 200.137 89.5386 203.629C89.8381 205.719 89.7206 207.848 89.1929 209.892C89.1227 209.741 87.73 207.665 82.7901 207.236Z" fill="#191919"/>
</svg>
