<svg width="600" height="600" viewBox="0 0 154 154" fill="none" xmlns="http://www.w3.org/2000/svg">
<path d="M104.108 89.0388L106.056 104.946C106.15 105.639 105.998 106.343 105.628 106.936C105.257 107.528 104.691 107.973 104.027 108.192L17.1906 130.997C16.8939 131.066 16.5857 131.067 16.2882 131.002C15.9907 130.937 15.7114 130.807 15.4706 130.62C15.2297 130.434 15.0334 130.196 14.8957 129.925C14.758 129.653 14.6824 129.354 14.6745 129.05L7.20817 67.0456C7.11509 66.3531 7.26704 65.6499 7.63773 65.0575C8.00841 64.4652 8.57451 64.0211 9.23804 63.8021L28.3913 58.77L28.2289 57.5525L8.99455 62.6658C8.34524 62.8282 3.80081 64.4507 4.12546 68.4277L11.5918 130.431C11.8452 132.081 12.9287 133.434 14.7564 133.434C15.5375 133.434 8.83911 134.53 102.406 110.548C103.054 110.382 107.6 108.681 107.275 104.786L105.327 88.7172L104.108 89.0388Z" fill="#191919"/>
<path d="M17.84 70.6981L23.683 119.311C23.7312 119.657 23.8527 119.989 24.0393 120.284C24.226 120.58 24.4736 120.832 24.7656 121.024C25.0575 121.216 25.3871 121.344 25.7323 121.398C26.0775 121.453 26.4304 121.433 26.7673 121.34C101.313 101.838 98.351 102.593 98.4284 102.593C98.9954 102.43 99.4862 102.071 99.8133 101.58C100.14 101.09 100.282 100.498 100.214 99.9126L99.0777 90.336L97.8602 90.6606L98.9965 100.079C99.025 100.366 98.951 100.654 98.7877 100.893C98.6243 101.131 98.3821 101.304 98.1037 101.38L26.4426 120.122C26.2758 120.17 26.1005 120.179 25.9297 120.149C25.759 120.119 25.5972 120.05 25.4567 119.949C25.3161 119.847 25.2004 119.715 25.1181 119.562C25.0358 119.41 24.9892 119.241 24.9817 119.067L19.1386 70.4546C19.1101 70.1672 19.1841 69.8789 19.3474 69.6408C19.5108 69.4026 19.753 69.2298 20.0314 69.1529L29.4495 66.718L29.2872 65.5005L19.7068 68.0196C19.1231 68.1627 18.6116 68.5136 18.268 69.0066C17.9244 69.4996 17.7722 70.101 17.84 70.6981Z" fill="#191919"/>
<path d="M104.515 44.4032C104.515 44.4032 42.1054 60.7126 41.862 60.7126C41.3007 60.7105 40.7596 60.5029 40.3409 60.129C39.9222 59.7552 39.6548 59.241 39.5894 58.6835L38.7777 52.0288L29.6054 54.4668C29.1491 54.5836 28.7505 54.8615 28.4831 55.2492C28.2157 55.6369 28.0976 56.1083 28.1506 56.5763L33.9936 105.189C34.0458 105.651 34.2637 106.078 34.607 106.392C34.9503 106.705 35.3956 106.883 35.8604 106.894C36.0227 106.894 108.008 88.0657 108.008 88.0657C108.466 87.95 108.866 87.6725 109.135 87.2845C109.403 86.8965 109.522 86.4244 109.469 85.9554L104.515 44.4032ZM44.2157 88.6339C50.0098 83.9975 65.7648 77.0404 79.5995 68.182C79.7598 68.0861 79.9413 68.0314 80.1279 68.0225C80.3145 68.0137 80.5004 68.0511 80.669 68.1314C80.8377 68.2117 80.9839 68.3325 81.0947 68.4829C81.2054 68.6333 81.2773 68.8088 81.3039 68.9937L82.7649 81.2449C82.8152 81.6823 82.7024 82.1228 82.4481 82.4822C82.1938 82.8417 81.8158 83.0947 81.3866 83.1928L46.2448 92.529C43.6261 93.1331 43.9094 89.8352 43.8099 89.6071C43.8224 89.2441 43.9666 88.8982 44.2157 88.6339ZM42.7548 80.5174L41.0503 66.1529C41 65.7155 41.1128 65.2749 41.3671 64.9155C41.6214 64.5561 41.9994 64.3031 42.4286 64.205L77.5696 54.8726C77.8205 54.8174 78.0801 54.814 78.3324 54.8624C78.5847 54.9109 78.8245 55.0103 79.0371 55.1546C79.2497 55.2988 79.4307 55.4849 79.569 55.7014C79.7073 55.918 79.8 56.1604 79.8414 56.414L80.2473 60.0664C80.2749 60.2503 80.2517 60.4383 80.1802 60.6099C80.1087 60.7816 79.9915 60.9305 79.8414 61.0403C67.8031 69.2747 49.0917 78.1461 44.3765 81.4079C44.212 81.4687 44.0363 81.4934 43.8613 81.4804C43.6864 81.4674 43.5163 81.4169 43.3626 81.3325C43.2088 81.2481 43.075 81.1316 42.9701 80.991C42.8653 80.8504 42.7918 80.6889 42.7548 80.5174Z" fill="#38A1FF"/>
<path d="M39.2647 47.4866L38.6154 42.2929C38.5744 41.9728 38.6503 41.6486 38.8293 41.3801C39.0082 41.1115 39.2781 40.9166 39.5894 40.8312C44.3627 39.6061 43.8543 39.6949 43.9722 39.6949C44.1254 39.6459 44.2969 39.5126 44.2969 39.1275C44.2813 39.0686 44.2541 39.0135 44.217 38.9652C44.1799 38.9169 44.1336 38.8765 44.0807 38.8463C44.0279 38.8161 43.9695 38.7967 43.9091 38.7892C43.8487 38.7818 43.7874 38.7864 43.7287 38.8028L39.427 39.9384C38.8849 40.0781 38.4125 40.4109 38.0985 40.8744C37.7845 41.3378 37.6506 41.9 37.7218 42.4552L38.3704 47.649C38.2165 48.116 39.2647 48.3197 39.2647 47.4866Z" fill="#191919"/>
<path d="M55.2563 36.2875C55.273 36.3544 55.304 36.4169 55.3471 36.4708C55.3903 36.5246 55.4446 36.5684 55.5063 36.5993C55.568 36.6301 55.6356 36.6472 55.7045 36.6495C55.7735 36.6517 55.8421 36.639 55.9056 36.6121C56.9945 36.361 97.523 25.7124 111.336 22.1665C111.519 22.1155 111.71 22.1057 111.897 22.1376C112.083 22.1695 112.261 22.2423 112.416 22.3509C112.571 22.4595 112.7 22.6011 112.794 22.7655C112.888 22.93 112.944 23.1132 112.959 23.302L114.26 34.0149C114.285 34.1413 114.358 34.253 114.464 34.3265C114.569 34.3999 114.699 34.4291 114.826 34.408C114.953 34.3868 115.067 34.3169 115.143 34.2132C115.219 34.1094 115.252 33.98 115.234 33.8526L113.933 23.1397C113.901 22.8131 113.798 22.4974 113.631 22.2149C113.464 21.9323 113.237 21.6898 112.966 21.5042C112.696 21.3186 112.388 21.1945 112.064 21.1407C111.74 21.0869 111.409 21.1045 111.093 21.1925C102.637 23.3364 112.525 21.1067 55.6622 35.6382C55.5901 35.6489 55.5213 35.6751 55.4604 35.7149C55.3995 35.7548 55.348 35.8074 55.3094 35.8692C55.2708 35.9309 55.2461 36.0003 55.2369 36.0725C55.2277 36.1447 55.2344 36.2181 55.2563 36.2875Z" fill="#191919"/>
<path d="M15.9762 93.9899C15.6656 94.0395 15.3681 94.1508 15.1012 94.317C14.8343 94.4833 14.6033 94.7012 14.4218 94.958C14.2403 95.2149 14.112 95.5054 14.0444 95.8125C13.9768 96.1196 13.9713 96.4372 14.0282 96.7464C14.0758 97.0607 14.1849 97.3626 14.3492 97.6346C14.5135 97.9067 14.7299 98.1438 14.9859 98.3321C15.2419 98.5205 15.5326 98.6566 15.8413 98.7326C16.1499 98.8085 16.4705 98.8229 16.7847 98.7748C17.0978 98.7306 17.3984 98.6228 17.6683 98.4581C17.9381 98.2934 18.1714 98.0753 18.3539 97.8171C18.5363 97.5589 18.664 97.2662 18.7292 96.9568C18.7943 96.6475 18.7955 96.3281 18.7327 96.0183C18.6191 95.3921 18.2703 94.8331 17.7578 94.456C17.2452 94.0788 16.6077 93.912 15.9762 93.9899Z" fill="#191919"/>
<path d="M48.5184 53.087C49.709 53.6192 53.6861 47.5663 53.7129 47.4874C54.2489 46.136 48.8706 41.9683 48.0314 41.9683C46.4456 41.9683 42.9716 47.2026 43.0811 48.2983C43.709 49.9775 46.8867 52.358 48.5184 53.087Z" fill="#191919"/>
<path d="M57.6064 43.835C59.2427 43.4484 55.7794 44.5617 69.8576 40.6696C70.0298 40.6071 70.1717 40.4813 70.2543 40.3178C70.337 40.1544 70.3542 39.9655 70.3025 39.7898C70.2507 39.614 70.1339 39.4647 69.9759 39.3721C69.8178 39.2794 69.6304 39.2506 69.4518 39.2914C61.4885 41.492 58.2075 42.7516 57.1156 43.0249C56.7947 43.1046 57.0482 43.9706 57.6064 43.835Z" fill="#191919"/>
<path d="M58.743 48.7041C60.3602 48.3587 59.2285 48.6168 63.531 47.6489C63.6831 47.601 63.8144 47.5026 63.903 47.3699C63.9915 47.2371 64.0321 47.0781 64.0179 46.9192C63.9905 46.7648 63.9113 46.6243 63.7932 46.521C63.6751 46.4177 63.5254 46.3577 63.3686 46.3511C61.6769 46.645 60.0186 47.1067 58.4184 47.7293C58.3051 47.7888 58.2177 47.8878 58.1728 48.0076C58.1279 48.1273 58.1286 48.2594 58.1749 48.3786C58.1852 48.4405 58.209 48.4992 58.2448 48.5507C58.2806 48.6021 58.3274 48.645 58.3818 48.6761C58.4361 48.7073 58.4968 48.7259 58.5592 48.7308C58.6217 48.7356 58.6845 48.7265 58.743 48.7041Z" fill="#191919"/>
<path d="M79.5995 38.3167C98.1624 33.6758 102.065 32.1528 106.629 30.8503C107.172 30.712 107.692 30.4931 108.171 30.201C108.261 30.1391 108.33 30.0512 108.368 29.9491C108.407 29.847 108.413 29.7355 108.387 29.6296C108.36 29.5237 108.302 29.4284 108.22 29.3565C108.138 29.2845 108.036 29.2394 107.927 29.2271C107.452 29.2485 106.984 29.3586 106.549 29.5517C101.149 31.3519 84.9318 35.8067 79.4433 37.505C79.3455 37.5353 79.2623 37.6006 79.2096 37.6884C79.157 37.7761 79.1385 37.8803 79.1579 37.9808C79.1772 38.0813 79.233 38.1712 79.3145 38.2332C79.396 38.2952 79.4975 38.3249 79.5995 38.3167Z" fill="#191919"/>
<path d="M107.761 35.557C104.056 36.5808 82.0338 42.008 79.5185 43.2668C79.1135 43.4292 79.2758 44.0785 79.762 44.0785C81.5139 43.9322 93.6296 40.129 108.169 36.7745C108.325 36.716 108.452 36.5994 108.524 36.4491C108.596 36.2988 108.606 36.1266 108.553 35.9688C108.5 35.8109 108.388 35.6798 108.24 35.603C108.093 35.5262 107.921 35.5097 107.761 35.557Z" fill="#191919"/>
<path d="M113.685 45.1336L110.115 46.0264C109.968 46.0729 109.845 46.1747 109.773 46.3102C109.7 46.4458 109.683 46.6044 109.725 46.7524C109.767 46.9003 109.865 47.026 109.999 47.1026C110.132 47.1792 110.29 47.2008 110.44 47.1627L114.01 46.2699C114.343 46.1969 114.692 46.255 114.984 46.4322C115.143 46.518 115.273 46.6479 115.36 46.8064C115.446 46.9649 115.485 47.1451 115.471 47.325L116.039 52.1941C116.049 52.3414 116.113 52.48 116.217 52.5844C116.321 52.6888 116.46 52.7519 116.607 52.7623C116.693 52.7655 116.779 52.7509 116.859 52.7194C116.94 52.6879 117.013 52.6402 117.074 52.5793C117.134 52.5183 117.182 52.4454 117.214 52.3652C117.245 52.285 117.26 52.1991 117.257 52.113L116.688 47.2439C116.642 46.9026 116.525 46.5747 116.346 46.2806C116.166 45.9864 115.929 45.7324 115.647 45.5344C115.365 45.3363 115.045 45.1985 114.708 45.1296C114.37 45.0606 114.022 45.062 113.685 45.1336Z" fill="#191919"/>
<path d="M88.7704 51.6276L85.8493 52.3581C85.2822 52.5206 84.7914 52.8793 84.4643 53.3701C84.1373 53.861 83.9953 54.4521 84.0637 55.038L84.5506 59.1766C84.561 59.3239 84.6242 59.4625 84.7286 59.5669C84.833 59.6712 84.9715 59.7344 85.1188 59.7448C85.2049 59.748 85.2908 59.7334 85.371 59.7019C85.4513 59.6704 85.5241 59.6227 85.5851 59.5617C85.646 59.5008 85.6938 59.4279 85.7253 59.3477C85.7567 59.2675 85.7713 59.1816 85.7681 59.0954L85.2811 54.9568C85.2526 54.6694 85.3266 54.3812 85.49 54.1431C85.6533 53.9049 85.8956 53.7321 86.1739 53.6552L89.0951 52.9247C89.8661 52.731 89.4787 51.4492 88.7704 51.6276Z" fill="#191919"/>
<path d="M87.634 75.0802C87.6366 74.9948 87.6213 74.9098 87.589 74.8307C87.5568 74.7516 87.5084 74.6801 87.4469 74.6208C87.3854 74.5615 87.3122 74.5157 87.2319 74.4864C87.1517 74.4571 87.0662 74.4449 86.981 74.4506C86.8957 74.4563 86.8126 74.4797 86.737 74.5194C86.6613 74.5591 86.5949 74.6142 86.5418 74.6812C86.4887 74.7481 86.4502 74.8254 86.4288 74.9081C86.4073 74.9908 86.4034 75.0771 86.4173 75.1613L86.9855 79.8689C87.0282 80.212 87.1445 80.5419 87.3265 80.8359C87.5085 81.13 87.7518 81.3812 88.0398 81.5726C88.3379 81.7625 88.6717 81.8893 89.0207 81.9452C89.3698 82.001 89.7265 81.9847 90.0689 81.8972L94.046 80.8421C94.1966 80.799 94.3239 80.6979 94.3999 80.561C94.476 80.4241 94.4945 80.2626 94.4514 80.112C94.4084 79.9614 94.3073 79.8341 94.1704 79.7581C94.0334 79.682 93.8719 79.6635 93.7213 79.7065L89.7443 80.7609C89.4108 80.8339 89.0621 80.7758 88.7703 80.5986C88.6115 80.513 88.481 80.3831 88.3945 80.2248C88.3081 80.0664 88.2694 79.8864 88.2833 79.7065L87.634 75.0802Z" fill="#191919"/>
<path d="M148.825 98.5343L139.979 89.6882C139.745 89.4338 139.615 89.1008 139.615 88.7552C139.615 88.4095 139.745 88.0765 139.979 87.8221L141.683 86.1177C141.961 85.8134 142.17 85.453 142.296 85.0609C142.422 84.6688 142.462 84.2541 142.414 83.8451C142.347 83.4361 142.178 83.0505 141.923 82.7241C141.668 82.3978 141.334 82.1413 140.953 81.9783L121.152 72.8083C120.932 72.6834 120.69 72.6046 120.439 72.5767C120.188 72.5488 119.933 72.5724 119.692 72.646C119.692 71.8803 119.768 72.7455 119.124 67.3703C119.126 67.2852 119.11 67.2007 119.077 67.1221C119.045 67.0434 118.996 66.9724 118.935 66.9136C118.873 66.8547 118.8 66.8093 118.72 66.7803C118.641 66.7512 118.555 66.7391 118.47 66.7448C118.386 66.7504 118.303 66.7737 118.227 66.8131C118.152 66.8525 118.086 66.9072 118.033 66.9737C117.979 67.0402 117.941 67.117 117.919 67.1993C117.897 67.2815 117.893 67.3674 117.906 67.4515L118.474 72.159C118.503 72.4464 118.429 72.7346 118.265 72.9728C118.102 73.2109 117.86 73.3837 117.581 73.4607L113.28 74.597C113.204 74.617 113.134 74.6521 113.072 74.7C113.011 74.748 112.96 74.8078 112.922 74.876C112.884 74.9442 112.86 75.0193 112.852 75.0969C112.844 75.1744 112.851 75.2529 112.874 75.3275C112.912 75.4543 112.986 75.5675 113.087 75.6538C113.188 75.7401 113.311 75.7958 113.442 75.8144C113.672 75.8144 113.212 75.9155 117.663 74.7593C117.584 75.2598 117.669 75.7724 117.906 76.2203L127.079 96.019C127.25 96.3965 127.51 96.7267 127.837 96.9808C128.164 97.235 128.548 97.4055 128.956 97.4775C129.363 97.5495 129.783 97.5208 130.177 97.3939C130.571 97.267 130.929 97.0458 131.218 96.7494L132.922 95.045C133.177 94.8108 133.51 94.6808 133.856 94.6808C134.201 94.6808 134.535 94.8108 134.789 95.045L143.635 103.891C144.112 104.359 144.753 104.621 145.42 104.621C146.088 104.621 146.729 104.359 147.206 103.891L149.072 102.024C149.448 101.506 149.629 100.873 149.584 100.234C149.539 99.5961 149.27 98.9942 148.825 98.5343ZM148.013 101.214L146.145 103.083C146.034 103.209 145.896 103.311 145.742 103.381C145.589 103.45 145.422 103.486 145.253 103.486C145.084 103.486 144.917 103.45 144.763 103.381C144.609 103.311 144.472 103.209 144.36 103.083L135.433 94.3176C134.957 93.8494 134.315 93.587 133.647 93.587C132.979 93.587 132.338 93.8494 131.862 94.3176L130.157 96.022C130.006 96.1637 129.827 96.2728 129.631 96.3426C129.436 96.4124 129.228 96.4414 129.021 96.4279C128.811 96.3953 128.613 96.3116 128.443 96.1842C128.273 96.0568 128.138 95.8896 128.048 95.6974L118.88 75.8918C118.747 75.6573 118.698 75.3841 118.743 75.1181C118.787 74.852 118.921 74.6094 119.124 74.4308C119.305 74.2324 119.547 74.1005 119.812 74.0563C120.077 74.0122 120.349 74.0583 120.585 74.1873L140.386 83.3581C140.578 83.4474 140.744 83.5825 140.871 83.7514C140.997 83.9203 141.08 84.1178 141.113 84.3265C141.145 84.5352 141.125 84.7485 141.055 84.9477C140.985 85.1469 140.867 85.3257 140.711 85.4684L139.007 87.1728C138.538 87.6491 138.276 88.2902 138.276 88.9581C138.276 89.6259 138.538 90.267 139.007 90.7433L147.853 99.5894C147.994 99.6665 148.114 99.7769 148.202 99.9108C148.291 100.045 148.346 100.198 148.362 100.358C148.378 100.518 148.355 100.68 148.294 100.828C148.234 100.977 148.138 101.109 148.015 101.213L148.013 101.214Z" fill="#191919"/>
<path d="M88.6893 56.7386C88.5866 56.775 88.5019 56.8494 88.4526 56.9465C88.4034 57.0437 88.3933 57.156 88.4246 57.2603C88.4559 57.3647 88.5261 57.4529 88.6207 57.5069C88.7153 57.5609 88.8271 57.5764 88.9328 57.5502C89.8179 57.4208 112.664 51.3886 112.874 51.2202C112.962 51.1569 113.028 51.0689 113.065 50.9674C113.102 50.8659 113.108 50.7556 113.082 50.6508C113.056 50.5459 112.999 50.4513 112.918 50.3792C112.838 50.3071 112.738 50.2608 112.63 50.2462C111.964 50.2493 91.3379 55.6038 88.6893 56.7386Z" fill="#191919"/>
<path d="M89.4198 63.3128C89.3171 63.3492 89.2324 63.4237 89.1831 63.5208C89.1338 63.6179 89.1238 63.7303 89.1551 63.8346C89.1864 63.9389 89.2566 64.0272 89.3512 64.0812C89.4458 64.1351 89.5575 64.1506 89.6633 64.1245C90.9504 63.9354 113.355 57.9943 113.604 57.7937C113.692 57.7304 113.759 57.6424 113.796 57.5409C113.833 57.4394 113.839 57.3291 113.812 57.2242C113.786 57.1194 113.729 57.0248 113.649 56.9527C113.568 56.8806 113.468 56.8343 113.361 56.8197C113.097 56.8197 92.5783 61.9591 89.4198 63.3128Z" fill="#191919"/>
<path d="M90.0692 69.8864C89.9665 69.9228 89.8818 69.9972 89.8325 70.0944C89.7832 70.1915 89.7732 70.3038 89.8045 70.4082C89.8358 70.5125 89.906 70.6008 90.0006 70.6547C90.0952 70.7087 90.207 70.7242 90.3127 70.6981C91.7675 70.4852 114.042 64.5372 114.254 64.3673C114.342 64.3041 114.408 64.2161 114.445 64.1147C114.483 64.0132 114.488 63.9029 114.462 63.798C114.436 63.6932 114.379 63.5987 114.298 63.5266C114.218 63.4546 114.117 63.4084 114.01 63.394C113.817 63.394 93.1932 68.5495 90.0692 69.8864Z" fill="#191919"/>
<path d="M114.905 70.9415C114.992 70.8782 115.059 70.7902 115.096 70.6887C115.133 70.5872 115.139 70.4769 115.113 70.3721C115.086 70.2672 115.029 70.1726 114.949 70.1005C114.868 70.0284 114.768 69.9821 114.661 69.9675C114.021 69.9675 96.0722 74.8963 95.9949 74.9178C94.2294 75.3427 92.4943 75.885 90.8011 76.5411C90.6985 76.5774 90.6137 76.6519 90.5645 76.749C90.5152 76.8461 90.5051 76.9585 90.5364 77.0628C90.5677 77.1671 90.638 77.2554 90.7326 77.3094C90.8272 77.3633 90.9389 77.3789 91.0446 77.3527C92.8471 77.0885 114.522 71.1704 114.905 70.9415Z" fill="#191919"/>
</svg>
